<svg width="29" height="42" viewBox="0 0 29 42" fill="none" xmlns="http://www.w3.org/2000/svg">
<path fill-rule="evenodd" clip-rule="evenodd" d="M0.698242 3.9668C0.698242 2.30994 2.04139 0.966797 3.69824 0.966797H13.4557C14.008 0.966797 14.4557 1.41451 14.4557 1.9668C14.4557 2.51908 14.008 2.9668 13.4557 2.9668H3.69824C3.14596 2.9668 2.69824 3.41451 2.69824 3.9668V13.6251H27.4105C27.9627 13.6251 28.4105 14.0729 28.4105 14.6251C28.4105 15.1774 27.9627 15.6251 27.4105 15.6251H16.4679V26.2835H27.4105C27.9627 26.2835 28.4105 26.7312 28.4105 27.2835C28.4105 27.8358 27.9627 28.2835 27.4105 28.2835H16.4679V41.2383H14.4679V28.2835H3.69824C2.04139 28.2835 0.698242 26.9404 0.698242 25.2835V3.9668ZM14.4679 26.2835V15.6251H2.69824V25.2835C2.69824 25.8358 3.14596 26.2835 3.69824 26.2835H14.4679Z" fill="black"/>
</svg>
